<?xml version="1.0" encoding="utf-8"?>
<!-- Generator: Adobe Illustrator 25.0.0, SVG Export Plug-In . SVG Version: 6.00 Build 0)  -->
<svg version="1.1" id="Calque_1" xmlns="http://www.w3.org/2000/svg" xmlns:xlink="http://www.w3.org/1999/xlink" x="0px" y="0px"
	 viewBox="0 0 507 326.3" style="enable-background:new 0 0 507 326.3;" xml:space="preserve">
<style type="text/css">
	.st0{fill:none;stroke:#000000;stroke-width:0.709;stroke-linecap:round;stroke-linejoin:round;stroke-miterlimit:10;}
</style>
<path class="st0" d="M75.8,68v184.2 M75.8,252.2h154.5 M230.3,68H75.8 M230.3,68V19.1 M230.3,19.1H75.8 M75.8,19.1V68 M75.8,68
	h154.5 M104.2,34.8h9.9 M97.2,41.8l7-7 M97.2,59.4V41.8 M99.9,62.1h-0.5l-0.5-0.2l-0.5-0.2L98,61.4l-0.3-0.5l-0.3-0.4L97.3,60
	l-0.1-0.6 M104.2,62.1h-4.3 M104.2,62.1v0.2 M104.2,62.3h-4.3 M99.9,62.3l-0.5-0.1l-0.6-0.1l-0.5-0.3l-0.4-0.3L97.6,61l-0.3-0.5
	L97.1,60v-0.6 M97.1,59.4V41.7 M97.1,41.7l7.1-7.1 M104.2,34.6h9.9 M114.1,34.6v0.2 M208.9,41.8l-7-7 M201.9,34.8H192 M192,34.6v0.2
	 M202,34.6h-10 M209,41.7l-7-7.1 M209,59.4V41.7 M206.2,62.3l0.6-0.1l0.5-0.1l0.5-0.3l0.4-0.3l0.4-0.5l0.2-0.5L209,60v-0.6
	 M202,62.3h4.2 M202,62.1v0.2 M202,62.1h4.2 M206.2,62.1h0.5l0.5-0.2l0.5-0.2l0.4-0.3l0.4-0.5l0.2-0.4l0.2-0.5v-0.6 M208.9,59.4
	V41.8 M75.8,252.2h154.5 M230.3,252.2v48.9 M75.8,301.1v-48.9 M230.3,301.1H75.8 M97.2,278.4l7,7 M104.2,285.4h9.9 M114.1,285.5
	v-0.1 M104.2,285.5h9.9 M97.1,278.4l7.1,7.1 M97.1,260.7v17.7 M99.9,257.9h-0.5l-0.6,0.2l-0.5,0.2l-0.4,0.4l-0.3,0.4l-0.3,0.5
	l-0.2,0.6v0.5 M104.2,257.9h-4.3 M104.2,258v-0.1 M104.2,258h-4.3 M99.9,258l-0.5,0.1l-0.5,0.1l-0.5,0.3l-0.4,0.3l-0.3,0.4l-0.3,0.5
	l-0.1,0.5l-0.1,0.5 M97.2,260.7v17.7 M201.9,285.4H192 M208.9,278.4l-7,7 M208.9,260.7v17.7 M206.2,258l0.5,0.1l0.5,0.1l0.5,0.3
	l0.4,0.3l0.4,0.4l0.2,0.5l0.2,0.5v0.5 M202,258h4.2 M202,258v-0.1 M202,257.9h4.2 M206.2,257.9h0.6l0.5,0.2l0.5,0.2l0.4,0.4l0.4,0.4
	l0.2,0.5l0.2,0.6v0.5 M209,260.7v17.7 M209,278.4l-7,7.1 M202,285.5h-10 M192,285.5v-0.1 M75.8,68l-0.3-0.1h-0.3l-0.3-0.2l-0.3-0.1
	l-0.3-0.2l-0.2-0.3l-0.2-0.3l-0.1-0.3 M75.8,252.2V68 M73.8,66.5H26.9 M26.9,66.5v187.1 M73.8,253.6l0.1-0.3l0.2-0.3l0.2-0.2
	l0.3-0.2l0.3-0.2l0.3-0.1l0.3-0.1h0.3 M26.9,253.6h46.9 M31.2,43.9l-4.3,22.6 M26.9,66.5h46.9 M73.8,66.5l-9.3-36.1 M64.5,30.4h-22
	 M42.5,30.4l-0.6,0.1l-0.6,0.2l-0.4,0.5l-0.3,0.5l-0.2,0.6v0.6l0.2,0.6L41,34 M41,34l6.2,6.2 M47.2,40.2l0.4,0.5l0.2,0.6v0.6
	l-0.1,0.6l-0.3,0.6l-0.5,0.4l-0.6,0.3l-0.6,0.1 M45.7,43.9H31.2 M26.9,253.6h46.9 M31.2,276.3l-4.3-22.7 M45.7,276.3H31.2
	 M47.2,279.9l0.4-0.5l0.2-0.6v-0.6l-0.1-0.6l-0.3-0.5l-0.5-0.4l-0.6-0.3l-0.6-0.1 M41,286.1l6.2-6.2 M42.5,289.8l-0.6-0.1l-0.6-0.3
	l-0.4-0.4l-0.3-0.6l-0.2-0.6v-0.6l0.2-0.6l0.4-0.5 M64.5,289.8h-22 M73.8,253.6l-9.3,36.2 M232.3,253.6l9.3,36.2 M277.8,255.5
	l0.1-0.4l0.1-0.4l0.3-0.3l0.2-0.3l0.3-0.2l0.4-0.1l0.3-0.1l0.4-0.1 M241.6,289.8h22 M263.6,289.8l0.6-0.1l0.6-0.3l0.5-0.4l0.3-0.6
	l0.1-0.6v-0.6l-0.2-0.6l-0.4-0.5 M265.1,286.1l-6.2-6.2 M258.9,279.9l-0.4-0.5l-0.2-0.6v-0.6l0.2-0.6l0.3-0.5l0.4-0.4l0.6-0.3
	l0.6-0.1 M260.4,276.3H275 M275,276.3l2.8-20.8 M277.8,64.7l0.1,0.4l0.1,0.3l0.3,0.3l0.2,0.3l0.3,0.2l0.4,0.2l0.3,0.1h0.4 M275,43.9
	l2.8,20.8 M260.4,43.9H275 M258.9,40.2l-0.4,0.5l-0.2,0.6v0.6l0.2,0.6l0.3,0.6l0.4,0.4l0.6,0.3l0.6,0.1 M265.1,34l-6.2,6.2
	 M263.6,30.4l0.6,0.1l0.6,0.2l0.5,0.5l0.3,0.5l0.1,0.6v0.6l-0.2,0.6l-0.4,0.5 M241.6,30.4h22 M232.3,66.5l9.3-36.1 M279.9,253.6
	h155.9 M435.8,66.5H279.9 M435.8,253.6V66.5 M279.9,66.5v187.1 M282,255.6v-0.4l-0.1-0.3l-0.3-0.4l-0.2-0.3l-0.3-0.2l-0.4-0.2
	l-0.4-0.1l-0.4-0.1 M284,297l-2-41.4 M288.2,301.1l-0.8-0.1l-0.8-0.2l-0.7-0.4l-0.6-0.5l-0.5-0.6l-0.4-0.7l-0.3-0.8L284,297
	 M427.6,301.1H288.2 M431.9,297.2l-0.2,0.8l-0.2,0.7l-0.4,0.7l-0.6,0.6l-0.6,0.5l-0.7,0.3l-0.8,0.2l-0.8,0.1 M435.2,255l-3.3,42.2
	 M435.8,253.6l-0.1,0.2l-0.1,0.1l-0.1,0.2l-0.1,0.1l-0.1,0.2v0.2l-0.1,0.2v0.2 M284,23.1l-2,41.4 M288.2,19.1h-0.8l-0.8,0.3
	l-0.7,0.3l-0.6,0.5l-0.5,0.6l-0.4,0.7l-0.3,0.8l-0.1,0.8 M427.6,19.1H288.2 M282,64.5v0.4l-0.1,0.4l-0.3,0.3l-0.2,0.3l-0.3,0.3
	l-0.4,0.2l-0.4,0.1h-0.4 M435.8,66.5L435.8,66.5l-0.2-0.3l-0.1-0.1l-0.1-0.2l-0.1-0.2v-0.1l-0.1-0.2v-0.2 M435.2,65.2L431.9,23
	 M431.9,23l-0.2-0.8l-0.2-0.8l-0.4-0.6l-0.6-0.6l-0.6-0.5l-0.7-0.4l-0.8-0.2h-0.8 M437.2,67.1H437h-0.2l-0.2-0.1h-0.2l-0.1-0.1
	l-0.2-0.1l-0.1-0.1l-0.2-0.2 M435.8,253.6l0.2-0.1l0.1-0.1l0.2-0.1l0.1-0.1l0.2-0.1h0.2l0.2-0.1h0.2 M437.2,253l41.5-3.3
	 M478.7,249.7l0.8-0.2l0.7-0.2l0.7-0.4l0.6-0.6l0.4-0.6l0.4-0.7l0.2-0.8l0.1-0.8 M482.6,245.4V74.7 M482.6,74.7l-0.1-0.8l-0.2-0.7
	l-0.4-0.7l-0.4-0.7l-0.6-0.5l-0.7-0.4l-0.7-0.3l-0.8-0.1 M478.7,70.5l-41.5-3.4 M232.3,253.6l-0.1-0.3L232,253l-0.2-0.2l-0.3-0.2
	l-0.2-0.2l-0.3-0.1l-0.4-0.1h-0.3 M279.9,66.5v187.1 M232.3,66.5h47.6 M230.3,68l0.3-0.1h0.4l0.3-0.2l0.2-0.1l0.3-0.2l0.2-0.3
	l0.2-0.3l0.1-0.3 M230.3,252.2V68 M279.9,253.6h-47.6"/>
</svg>
